<?xml version="1.0" encoding="UTF-8"?>
<svg xmlns="http://www.w3.org/2000/svg" xmlns:xlink="http://www.w3.org/1999/xlink" width="222pt" height="290pt" viewBox="0 0 222 290" version="1.1">
<g id="surface1">
<path style=" stroke:none;fill-rule:nonzero;fill:rgb(0%,0%,54.509804%);fill-opacity:1;" d="M 4.976562 5.21875 C 4.8125 5.476562 4.78125 285.875 4.976562 286.035156 C 5.136719 286.199219 215.214844 286.164062 215.410156 286.003906 C 215.507812 285.90625 215.605469 8.152344 215.472656 5.574219 C 215.472656 5.253906 194.023438 5.15625 110.289062 5.089844 C 52.429688 5.027344 5.039062 5.089844 4.976562 5.21875 Z M 211.308594 9.023438 C 211.921875 9.375 211.921875 11.246094 211.921875 146.289062 C 211.921875 281.332031 211.921875 283.199219 211.308594 283.554688 C 210.339844 284.039062 7.558594 284.007812 7.234375 283.492188 C 6.945312 283.039062 6.976562 9.472656 7.269531 9.023438 C 7.558594 8.570312 210.433594 8.570312 211.308594 9.023438 Z M 211.308594 9.023438 "/>
<path style=" stroke:none;fill-rule:nonzero;fill:rgb(0%,0%,54.509804%);fill-opacity:1;" d="M 158.457031 18.882812 C 150.636719 20.074219 144.4375 23.746094 142.109375 28.582031 C 141.59375 29.675781 140.980469 30.707031 140.753906 30.835938 C 140.527344 30.964844 116.007812 31.09375 86.253906 31.09375 C 56.5 31.09375 31.949219 31.222656 31.753906 31.351562 C 31.269531 31.675781 31.175781 36.28125 31.625 36.570312 C 31.789062 36.667969 37.441406 36.765625 44.160156 36.765625 C 50.976562 36.796875 56.628906 36.957031 56.953125 37.121094 C 57.40625 37.34375 57.503906 37.730469 57.4375 39.085938 L 57.339844 40.761719 L 48.132812 40.921875 C 39.21875 41.082031 38.863281 41.117188 37.34375 41.855469 C 34.632812 43.210938 31.980469 47.300781 31.980469 50.136719 C 31.980469 51.8125 32.820312 54.585938 33.757812 56.066406 C 34.984375 58.03125 37.667969 60.449219 39.605469 61.351562 C 43.222656 63.058594 44.515625 63.253906 51.300781 63.089844 L 57.566406 62.929688 L 58.828125 64.894531 C 59.503906 65.992188 60.121094 66.988281 60.183594 67.152344 C 60.347656 67.601562 65.222656 65.21875 65.449219 64.605469 C 65.578125 64.347656 65.191406 63.445312 64.640625 62.574219 C 64.09375 61.707031 63.542969 60.546875 63.445312 59.964844 C 63.253906 59.09375 63.382812 58.773438 64.222656 57.902344 C 66.03125 56.035156 66.355469 54.199219 65.222656 52.199219 C 63.867188 49.816406 60.214844 48.914062 57.695312 50.363281 C 55.273438 51.75 54.660156 53.425781 55.402344 56.777344 C 55.628906 57.902344 55.597656 58 54.726562 58.355469 C 54.207031 58.578125 52.011719 58.742188 49.75 58.773438 C 45.808594 58.804688 45.648438 58.773438 43.742188 57.773438 C 41.707031 56.710938 40.058594 54.84375 40.058594 53.585938 C 40.058594 53.230469 39.898438 52.488281 39.734375 51.972656 C 39.445312 51.167969 39.507812 50.71875 40.15625 49.269531 C 40.574219 48.300781 41.15625 47.335938 41.449219 47.109375 C 42.511719 46.207031 44.613281 46.046875 53.882812 45.980469 C 61.089844 45.917969 63.414062 45.820312 63.609375 45.496094 C 63.738281 45.273438 63.867188 43.402344 63.898438 41.308594 C 63.929688 38.410156 64.0625 37.472656 64.417969 37.183594 C 64.996094 36.765625 70.972656 36.828125 71.394531 37.25 C 71.589844 37.441406 71.75 43.082031 71.78125 50.910156 L 71.878906 64.285156 L 74.6875 64.378906 C 77.273438 64.476562 77.53125 64.414062 77.855469 63.769531 C 78.144531 63.285156 78.210938 59.480469 78.113281 50.203125 C 78.015625 41.40625 78.082031 37.28125 78.339844 37.214844 C 78.5 37.152344 80.308594 37.023438 82.28125 36.957031 C 84.960938 36.863281 86.058594 36.925781 86.480469 37.214844 C 87.03125 37.636719 86.996094 37.699219 86.191406 38.570312 C 84.378906 40.4375 83.800781 43.46875 84.832031 45.53125 C 85.125 46.109375 85.929688 47.171875 86.675781 47.914062 C 87.871094 49.140625 87.933594 49.363281 87.609375 50.105469 C 87.417969 50.558594 87.09375 50.910156 86.933594 50.910156 C 86.320312 50.910156 84.058594 54.488281 83.832031 55.777344 C 83.703125 56.484375 83.703125 57.773438 83.832031 58.707031 C 84.023438 60.03125 84.347656 60.640625 85.414062 61.800781 C 87.609375 64.1875 88.742188 64.765625 93.363281 65.765625 C 97.722656 66.730469 105.636719 63.832031 109.835938 59.738281 C 110.613281 58.964844 111.453125 58.320312 111.644531 58.320312 C 112.128906 58.320312 112.421875 59.835938 112.421875 62.382812 L 112.421875 64.445312 L 115.328125 64.445312 C 117.75 64.445312 118.269531 64.347656 118.496094 63.863281 C 118.625 63.574219 118.753906 57.613281 118.722656 50.652344 C 118.6875 41.503906 118.785156 37.859375 119.042969 37.472656 C 119.464844 36.925781 122.792969 36.636719 125.246094 36.957031 L 126.636719 37.121094 L 126.699219 50.71875 L 126.796875 64.285156 L 129.21875 64.378906 C 130.542969 64.445312 131.964844 64.378906 132.355469 64.285156 L 133.097656 64.121094 L 133.097656 37.378906 L 133.9375 37.054688 C 135.035156 36.636719 139.429688 36.636719 140.234375 37.054688 C 140.851562 37.410156 140.851562 37.828125 140.851562 50.652344 C 140.816406 61.15625 140.914062 63.960938 141.238281 64.15625 C 141.464844 64.316406 142.851562 64.445312 144.304688 64.445312 C 146.664062 64.445312 147.019531 64.378906 147.3125 63.769531 C 147.570312 63.316406 147.667969 59.160156 147.601562 50.203125 L 147.535156 37.28125 L 148.3125 36.992188 C 149.507812 36.539062 175.933594 36.796875 176.386719 37.25 C 176.644531 37.507812 176.773438 39.085938 176.742188 41.921875 C 176.707031 45.59375 176.644531 46.304688 176.160156 46.625 C 175.738281 46.949219 173.027344 47.042969 165.273438 47.042969 C 155.546875 47.042969 154.839844 47.078125 153.867188 47.6875 C 152.671875 48.398438 152.285156 49.75 152.578125 52.296875 C 152.898438 55.035156 153.382812 56.226562 154.839844 57.808594 C 156.128906 59.160156 156.355469 59.289062 157.746094 59.289062 C 159.714844 59.289062 161.300781 57.9375 162.527344 55.230469 C 163.042969 54.132812 163.65625 53.167969 163.949219 53.039062 C 164.238281 52.941406 167.015625 52.84375 170.085938 52.84375 C 174.738281 52.84375 175.773438 52.941406 176.191406 53.359375 C 176.613281 53.777344 176.707031 54.746094 176.707031 58.773438 C 176.707031 62.15625 176.835938 63.800781 177.097656 64.058594 C 177.320312 64.285156 178.515625 64.445312 180.132812 64.445312 C 182.394531 64.445312 182.8125 64.347656 182.941406 63.863281 C 183.039062 63.574219 183.105469 57.515625 183.105469 50.429688 C 183.136719 38.410156 183.167969 37.539062 183.71875 37.121094 C 184.042969 36.894531 184.625 36.796875 185.042969 36.894531 C 185.429688 36.992188 186.109375 36.992188 186.527344 36.863281 C 187.238281 36.699219 187.304688 36.539062 187.335938 34.125 C 187.367188 31.609375 187.367188 31.546875 186.496094 31.222656 C 186.011719 31.0625 185.300781 30.964844 184.945312 31.0625 C 183.621094 31.382812 182.910156 30.902344 181.652344 28.773438 C 180.199219 26.261719 176.835938 23.070312 174.222656 21.652344 C 171.085938 19.976562 167.050781 18.980469 162.980469 18.851562 C 161.039062 18.785156 159.003906 18.816406 158.457031 18.882812 Z M 167.664062 25.132812 C 170.699219 26.164062 172.507812 27.164062 173.960938 28.679688 C 175.253906 30 175.253906 30.03125 174.578125 30.546875 C 173.996094 31.03125 172.671875 31.09375 161.492188 31.09375 L 149.085938 31.0625 L 148.992188 30.0625 C 148.894531 29.257812 149.121094 28.902344 150.121094 28.066406 C 151.832031 26.648438 154.839844 25.199219 157.324219 24.648438 C 160.167969 24.003906 164.980469 24.230469 167.664062 25.132812 Z M 112.128906 37.410156 C 112.292969 37.667969 112.390625 40.40625 112.292969 43.53125 C 112.164062 49.816406 112.324219 49.300781 109.449219 53.132812 C 106.734375 56.742188 102.34375 59.417969 98.109375 59.996094 C 94.039062 60.578125 91.195312 59.707031 90.164062 57.550781 C 89.226562 55.582031 91.390625 52.941406 95.914062 50.652344 C 97.269531 49.945312 99.113281 49.140625 99.984375 48.816406 C 100.886719 48.496094 101.792969 48.074219 102.019531 47.914062 C 102.4375 47.59375 102.570312 44.273438 102.179688 44.046875 C 102.019531 43.949219 101.242188 44.207031 100.402344 44.628906 C 97.367188 46.078125 93.621094 46.433594 91.679688 45.402344 C 89.96875 44.464844 89.9375 41.503906 91.648438 40.050781 C 92.84375 39.019531 96.367188 37.378906 98.011719 37.085938 C 98.757812 36.957031 102.148438 36.894531 105.605469 36.925781 C 110.484375 36.957031 111.90625 37.054688 112.128906 37.410156 Z M 112.128906 37.410156 "/>
<path style=" stroke:none;fill-rule:nonzero;fill:rgb(0%,0%,54.509804%);fill-opacity:1;" d="M 31.464844 72.273438 C 31.402344 72.5 31.367188 74.660156 31.402344 77.042969 L 31.496094 81.359375 L 33.175781 81.910156 C 37.992188 83.421875 40.542969 86.9375 39.703125 90.898438 C 39.410156 92.285156 39.023438 92.898438 37.507812 94.441406 C 36.050781 95.925781 35.339844 96.410156 33.824219 96.828125 C 32.371094 97.246094 31.886719 97.570312 31.625 98.179688 C 31.175781 99.339844 31.238281 105.464844 31.722656 105.945312 C 32.015625 106.238281 36.667969 106.332031 50.6875 106.332031 C 71.039062 106.332031 70.652344 106.367188 73.492188 104.398438 C 79.890625 100.019531 82.699219 89.382812 79.4375 82.003906 C 77.855469 78.460938 74.65625 75.304688 70.394531 73.113281 L 68.003906 71.855469 L 49.8125 71.855469 C 35.179688 71.855469 31.59375 71.953125 31.464844 72.273438 Z M 61.25 80.878906 C 64.996094 82.167969 66.808594 84.359375 67.097656 87.871094 C 67.484375 92.414062 65.449219 95.472656 61.21875 96.828125 C 59.699219 97.277344 59.117188 97.3125 57.4375 97.019531 C 54.402344 96.503906 52.722656 95.3125 51.460938 92.832031 C 49.683594 89.382812 50.074219 85.90625 52.496094 83.292969 C 53.464844 82.230469 54.402344 81.617188 55.921875 81.039062 C 58.472656 80.105469 59.019531 80.070312 61.25 80.878906 Z M 61.25 80.878906 "/>
<path style=" stroke:none;fill-rule:nonzero;fill:rgb(0%,0%,54.509804%);fill-opacity:1;" d="M 82.054688 72.371094 C 82.054688 72.660156 83.605469 76.335938 85.480469 80.523438 C 87.351562 84.710938 89.613281 89.804688 90.484375 91.832031 C 91.390625 93.863281 92.457031 96.246094 92.875 97.148438 C 93.296875 98.019531 94.265625 100.210938 95.007812 101.984375 C 95.753906 103.753906 96.59375 105.464844 96.882812 105.753906 C 97.367188 106.269531 98.304688 106.332031 106.640625 106.332031 C 111.710938 106.367188 116.070312 106.269531 116.332031 106.171875 C 116.589844 106.074219 117.234375 105.011719 117.71875 103.820312 C 118.234375 102.628906 118.914062 101.015625 119.269531 100.210938 C 119.625 99.40625 120.046875 98.472656 120.207031 98.117188 C 120.335938 97.761719 121.046875 96.023438 121.726562 94.25 C 122.4375 92.476562 123.308594 90.382812 123.664062 89.578125 C 124.050781 88.773438 124.859375 86.742188 125.539062 85.066406 C 126.183594 83.390625 126.828125 81.84375 126.992188 81.652344 C 127.152344 81.457031 127.574219 80.523438 127.894531 79.558594 C 128.21875 78.589844 128.960938 76.851562 129.511719 75.691406 C 130.058594 74.496094 130.542969 73.175781 130.578125 72.789062 L 130.671875 72.015625 L 109.675781 72.015625 L 109.609375 76.464844 L 109.546875 80.910156 L 111.613281 82.875 C 113.941406 85.066406 114.359375 86 114.359375 89.09375 C 114.359375 92.671875 112.679688 95.085938 109.03125 96.699219 C 107.769531 97.246094 107.058594 97.34375 105.378906 97.214844 C 103.601562 97.085938 103.019531 96.859375 101.535156 95.796875 C 100.53125 95.121094 99.304688 93.929688 98.722656 93.15625 C 97.851562 91.929688 97.722656 91.480469 97.625 89.320312 C 97.527344 87.0625 97.625 86.710938 98.496094 85.164062 C 99.113281 84.164062 100.082031 83.070312 101.019531 82.457031 C 101.890625 81.875 102.664062 81.265625 102.828125 81.070312 C 102.957031 80.878906 103.019531 78.75 102.988281 76.367188 L 102.890625 72.015625 L 92.488281 71.921875 C 82.960938 71.855469 82.054688 71.886719 82.054688 72.371094 Z M 82.054688 72.371094 "/>
<path style=" stroke:none;fill-rule:nonzero;fill:rgb(0%,0%,54.509804%);fill-opacity:1;" d="M 148.441406 72.179688 C 147.503906 72.402344 144.628906 73.722656 143.273438 74.53125 C 134.9375 79.429688 132.160156 87.804688 135.941406 96.796875 C 136.941406 99.210938 137.554688 100.082031 139.75 102.433594 C 142.175781 104.980469 142.59375 105.300781 144.597656 105.945312 C 146.695312 106.625 147.34375 106.65625 156.613281 106.65625 C 165.015625 106.65625 166.53125 106.589844 167.40625 106.140625 C 169.535156 105.042969 170.28125 104.980469 171.539062 105.851562 L 172.734375 106.65625 L 179.972656 106.589844 L 187.207031 106.496094 L 187.304688 99.761719 C 187.335938 96.054688 187.273438 92.898438 187.144531 92.769531 C 186.980469 92.605469 181.652344 92.476562 175.222656 92.476562 L 163.59375 92.414062 L 161.589844 94.378906 C 158.875 97.019531 156.164062 97.828125 152.964844 96.957031 C 149.570312 96.023438 146.859375 92.445312 146.890625 88.933594 C 146.921875 85.9375 148.410156 83.421875 150.929688 82.132812 C 152.15625 81.523438 153.996094 81.328125 157.582031 81.457031 L 159.652344 81.523438 L 161.816406 83.679688 L 163.980469 85.871094 L 175.253906 85.871094 C 181.488281 85.839844 186.753906 85.742188 186.980469 85.582031 C 187.304688 85.390625 187.367188 83.777344 187.367188 78.785156 C 187.335938 73.242188 187.238281 72.210938 186.820312 72.050781 C 186.5625 71.953125 183.847656 71.855469 180.8125 71.855469 C 175.933594 71.855469 175.125 71.921875 174.125 72.46875 C 173.511719 72.820312 172.671875 73.273438 172.28125 73.5 C 171.636719 73.820312 171.28125 73.757812 169.601562 72.886719 L 167.664062 71.855469 L 158.519531 71.886719 C 153.511719 71.921875 148.992188 72.050781 148.441406 72.179688 Z M 148.441406 72.179688 "/>
<path style=" stroke:none;fill-rule:nonzero;fill:rgb(0%,0%,54.509804%);fill-opacity:1;" d="M 31.820312 114.261719 C 31.402344 114.710938 31.335938 121.800781 31.335938 180.058594 L 31.335938 245.371094 L 32.078125 246.628906 C 33.082031 248.402344 35.601562 249.464844 38.121094 249.207031 C 40.15625 248.980469 41.1875 248.53125 42.289062 247.335938 C 43.289062 246.273438 43.839844 246.273438 44.679688 247.335938 C 45.453125 248.304688 47.585938 249.367188 48.8125 249.398438 C 50.136719 249.398438 52.527344 248.464844 53.304688 247.59375 C 54.273438 246.597656 54.757812 246.628906 56.015625 247.722656 C 56.566406 248.207031 57.632812 248.820312 58.40625 249.046875 C 59.636719 249.464844 59.992188 249.464844 61.605469 248.949219 C 62.671875 248.59375 63.800781 247.980469 64.320312 247.433594 C 65.386719 246.308594 65.644531 246.273438 66.742188 247.304688 C 67.195312 247.722656 68.355469 248.367188 69.292969 248.722656 C 70.84375 249.304688 71.101562 249.335938 72.589844 248.882812 C 73.492188 248.625 74.59375 248.015625 75.109375 247.464844 C 76.238281 246.273438 76.984375 246.242188 77.660156 247.304688 C 78.210938 248.109375 80.375 249.398438 81.214844 249.398438 C 82.960938 249.398438 85.058594 248.625 86.09375 247.5625 C 87.289062 246.339844 88.226562 246.308594 88.871094 247.53125 C 89.324219 248.367188 91.617188 249.398438 93.039062 249.398438 C 94.394531 249.398438 96.527344 248.464844 97.367188 247.5 C 98.175781 246.628906 99.304688 246.628906 99.886719 247.5625 C 100.179688 247.949219 101.179688 248.53125 102.246094 248.882812 C 104.023438 249.496094 104.152344 249.496094 105.765625 248.949219 C 106.671875 248.625 107.800781 247.949219 108.285156 247.433594 C 109.382812 246.242188 109.933594 246.242188 110.773438 247.433594 C 111.582031 248.5625 114.261719 249.5625 115.683594 249.269531 C 116.75 249.078125 119.238281 247.59375 119.625 246.949219 C 119.949219 246.371094 120.625 246.371094 121.144531 246.984375 C 121.855469 247.820312 124.4375 249.078125 125.503906 249.078125 C 127.539062 249.078125 128.671875 248.660156 129.929688 247.402344 C 130.609375 246.726562 131.351562 246.179688 131.609375 246.179688 C 131.867188 246.179688 132.386719 246.691406 132.773438 247.304688 C 134.257812 249.691406 139.105469 249.785156 141.335938 247.464844 C 142.464844 246.273438 142.789062 246.273438 143.789062 247.335938 C 145.113281 248.789062 147.050781 249.433594 148.925781 249.078125 C 150.832031 248.722656 151.445312 248.433594 152.285156 247.5 C 153.09375 246.597656 154.222656 246.628906 154.839844 247.59375 C 155.484375 248.5625 158.84375 249.464844 160.296875 249.046875 C 161.394531 248.753906 162.558594 248.046875 163.496094 247.113281 C 164.304688 246.308594 164.433594 246.308594 165.855469 247.59375 C 167.050781 248.660156 168.859375 249.398438 170.183594 249.398438 C 171.023438 249.398438 173.382812 248.335938 174.511719 247.433594 L 175.382812 246.726562 L 176.417969 247.59375 C 179.679688 250.367188 184.785156 249.851562 186.660156 246.5625 L 187.367188 245.277344 L 187.304688 179.605469 L 187.207031 113.90625 L 109.773438 113.839844 C 40.542969 113.777344 32.273438 113.808594 31.820312 114.261719 Z M 74.109375 118.253906 C 74.464844 118.609375 74.65625 197.714844 74.300781 202.035156 L 74.140625 204.128906 L 70.585938 204.289062 C 68.648438 204.386719 65.644531 204.386719 63.964844 204.289062 C 60.25 204.09375 59.957031 203.675781 61.960938 201.582031 C 63.800781 199.648438 65.125 197.039062 65.449219 194.621094 C 65.707031 192.65625 65.320312 192.398438 63.058594 193.140625 C 60.863281 193.882812 57.761719 196.265625 56.535156 198.167969 C 55.953125 199.070312 55.46875 199.777344 55.402344 199.777344 C 55.339844 199.777344 55.078125 199.875 54.789062 199.972656 C 54.464844 200.101562 54.144531 199.808594 53.789062 199.132812 C 52.558594 196.75 49.652344 194.300781 46.746094 193.203125 C 44.710938 192.429688 44.257812 192.65625 44.257812 194.363281 C 44.257812 196.234375 46.003906 199.84375 47.777344 201.648438 C 50.136719 204.03125 49.945312 204.128906 42.320312 204.128906 L 35.695312 204.128906 L 35.472656 197.039062 C 35.210938 188.402344 35.308594 118.546875 35.601562 118.09375 C 35.890625 117.644531 73.65625 117.804688 74.109375 118.253906 Z M 183.105469 118.480469 C 183.394531 118.898438 183.492188 131.273438 183.492188 177.835938 C 183.492188 232.097656 183.460938 236.671875 182.941406 237.21875 C 182.492188 237.734375 181.878906 237.800781 177.773438 237.800781 C 173.1875 237.800781 171.863281 237.542969 171.863281 236.703125 C 171.863281 236.480469 172.445312 234.707031 173.1875 232.773438 C 175.125 227.617188 176.675781 221.816406 177.160156 217.984375 C 177.257812 217.273438 177.484375 215.761719 177.644531 214.601562 C 177.839844 213.441406 178 209.542969 178 205.933594 C 178 195.75 176.773438 188.691406 173.414062 179.671875 C 167.695312 164.203125 157.488281 151.25 144.210938 142.582031 C 142.625 141.550781 140.753906 140.328125 140.042969 139.84375 C 139.332031 139.394531 138.105469 138.75 137.296875 138.394531 C 136.488281 138.070312 134.96875 137.394531 133.902344 136.914062 C 126.570312 133.527344 118.105469 131.402344 109.417969 130.757812 C 103.667969 130.339844 94.621094 130.757812 90.777344 131.660156 C 86.414062 132.691406 81.246094 134.109375 80.859375 134.429688 C 80.664062 134.59375 80.085938 134.6875 79.566406 134.625 C 78.726562 134.527344 78.664062 134.429688 78.46875 132.59375 C 78.113281 129.082031 78.46875 118.804688 78.984375 118.253906 C 79.375 117.835938 85.1875 117.773438 131.0625 117.867188 C 179.003906 117.933594 182.71875 117.964844 183.105469 118.480469 Z M 111.839844 134.335938 C 116.847656 134.851562 124.246094 136.621094 127.507812 138.105469 C 128.058594 138.363281 128.703125 138.554688 128.929688 138.554688 C 129.574219 138.554688 137.132812 142.359375 140.367188 144.324219 C 149.410156 149.769531 158.683594 158.855469 163.464844 166.941406 C 165.109375 169.683594 169.277344 177.800781 169.277344 178.222656 C 169.277344 178.414062 169.570312 179.1875 169.925781 179.929688 C 170.636719 181.507812 171.960938 185.824219 172.832031 189.464844 C 174.253906 195.429688 174.511719 197.84375 174.542969 205.578125 C 174.578125 212.054688 174.480469 213.761719 173.867188 217.402344 C 172.800781 223.65625 170.957031 229.746094 168.632812 234.769531 C 167.308594 237.640625 166.886719 237.960938 164.753906 237.734375 C 162.914062 237.574219 162.882812 236.996094 164.367188 232.578125 C 167.210938 224.234375 167.953125 219.980469 168.210938 211.085938 C 168.46875 202.484375 167.824219 197.230469 165.5625 188.984375 C 165.273438 187.921875 164.917969 186.890625 164.753906 186.726562 C 164.625 186.535156 164.433594 185.953125 164.335938 185.4375 C 163.851562 182.730469 159.75 174.355469 156.484375 169.457031 C 150.507812 160.402344 141.527344 152.152344 132.515625 147.382812 C 131.320312 146.738281 130.222656 146.128906 130.027344 145.964844 C 129.1875 145.257812 122.5 142.808594 117.589844 141.359375 C 115.523438 140.746094 111.195312 139.972656 108.222656 139.683594 C 104.410156 139.296875 94.523438 139.488281 91.359375 140.003906 C 85.445312 141.003906 82.441406 141.679688 80.988281 142.292969 C 80.050781 142.746094 79.632812 142.777344 78.984375 142.488281 C 78.308594 142.164062 78.210938 141.972656 78.371094 141.070312 C 78.757812 138.683594 78.792969 138.621094 79.859375 138.394531 C 80.441406 138.265625 81.085938 138.039062 81.246094 137.878906 C 81.667969 137.589844 87.386719 135.945312 90.617188 135.238281 C 91.875 134.945312 94.558594 134.558594 96.59375 134.367188 C 98.628906 134.140625 100.371094 133.914062 100.46875 133.820312 C 100.695312 133.59375 107.898438 133.914062 111.839844 134.335938 Z M 100.046875 142.101562 C 101.46875 142.9375 102.050781 143.9375 102.117188 145.644531 C 102.214844 147.769531 101.597656 149.574219 100.179688 151.285156 C 96.59375 155.601562 90.390625 157.695312 87.125 155.664062 C 85.511719 154.667969 84.960938 153.796875 84.960938 152.21875 C 84.960938 148.542969 88.03125 144.484375 92.425781 142.421875 C 95.007812 141.199219 98.367188 141.070312 100.046875 142.101562 Z M 121.207031 144.96875 C 124.921875 146.644531 124.535156 151.347656 120.496094 154.410156 C 117.65625 156.566406 114.230469 157.46875 110.449219 157.082031 C 108.542969 156.890625 107.964844 156.695312 107.058594 155.859375 C 105.765625 154.761719 104.992188 153.410156 104.992188 152.347656 C 104.992188 150.476562 107.964844 146.289062 109.253906 146.289062 C 109.449219 146.289062 109.871094 146.09375 110.128906 145.835938 C 110.417969 145.613281 111.515625 145.097656 112.582031 144.710938 C 115.101562 143.808594 118.945312 143.9375 121.207031 144.96875 Z M 138.328125 153.507812 C 139.300781 153.925781 140.625 154.890625 141.300781 155.632812 C 142.464844 156.921875 142.53125 157.117188 142.402344 158.695312 C 142.175781 161.367188 140.558594 162.949219 136.714844 164.269531 C 130.707031 166.363281 123.082031 163.335938 123.082031 158.855469 C 123.082031 156.214844 126.214844 153.472656 130.1875 152.636719 C 132 152.25 136.617188 152.734375 138.328125 153.507812 Z M 109.515625 158.664062 C 116.78125 160.015625 121.757812 162.078125 128.542969 166.558594 C 131.480469 168.457031 136.390625 173 138.265625 175.449219 C 138.878906 176.253906 139.785156 177.414062 140.300781 178.027344 C 140.785156 178.609375 141.171875 179.15625 141.171875 179.285156 C 141.171875 179.382812 141.65625 180.1875 142.238281 181.023438 C 146.828125 187.792969 149.636719 196.328125 150.1875 205.253906 C 150.636719 212.730469 150.058594 218.628906 148.410156 223.074219 C 148.152344 223.71875 147.957031 224.652344 147.957031 225.136719 L 147.957031 226.007812 L 148.863281 225.136719 C 151.15625 222.945312 155.96875 224.976562 158.457031 229.195312 C 160.039062 231.902344 160.683594 236.125 159.683594 237.21875 C 159.230469 237.734375 158.617188 237.800781 155.191406 237.800781 C 152.964844 237.800781 150.863281 237.640625 150.410156 237.445312 C 149.3125 236.929688 148.117188 234.546875 147.441406 231.421875 C 147.085938 229.96875 146.761719 228.777344 146.664062 228.777344 C 146.566406 228.777344 145.726562 230.453125 144.757812 232.515625 C 142.140625 238.058594 142.53125 237.800781 136.554688 237.800781 C 132.09375 237.800781 131.515625 237.734375 131.027344 237.1875 C 130.511719 236.640625 130.578125 236.511719 131.902344 234.867188 C 133.679688 232.675781 135.90625 229.359375 136.292969 228.390625 C 136.457031 227.972656 136.875 226.972656 137.230469 226.199219 C 140.332031 219.464844 140.980469 216.339844 140.980469 208.15625 C 141.011719 201.9375 140.882812 200.710938 139.65625 196.234375 C 138.007812 190.207031 134.035156 183.214844 129.414062 178.316406 C 121.660156 170.035156 109.480469 165.140625 98.109375 165.71875 C 91.90625 166.042969 87.0625 167.296875 81.765625 169.941406 C 79.46875 171.101562 79.375 171.132812 78.757812 170.550781 C 78.179688 170.035156 78.113281 169.714844 78.339844 167.070312 C 78.597656 163.65625 78.792969 163.238281 80.375 162.433594 C 81.828125 161.691406 87.515625 159.660156 89.484375 159.179688 C 94.492188 157.890625 104.054688 157.632812 109.515625 158.664062 Z M 147.957031 166.910156 C 151.285156 167.972656 154.257812 170.519531 155.871094 173.679688 C 156.90625 175.675781 156.90625 177.414062 155.9375 178.867188 C 155.0625 180.15625 154.128906 180.636719 151.832031 181.089844 C 150.445312 181.347656 149.863281 181.28125 148.183594 180.734375 C 143.304688 179.089844 139.523438 175.289062 139.039062 171.550781 C 138.847656 169.972656 138.910156 169.648438 139.71875 168.554688 C 140.625 167.234375 141.59375 166.6875 143.433594 166.492188 C 145.695312 166.234375 145.953125 166.265625 147.957031 166.910156 Z M 102.535156 167.296875 C 103.3125 168.007812 104.054688 170.230469 104.699219 173.679688 C 105.347656 177.15625 105.960938 179.316406 106.507812 179.863281 C 106.960938 180.285156 107.800781 180.507812 109.675781 180.636719 L 112.261719 180.800781 L 116.105469 177.09375 C 119.140625 174.128906 120.109375 173.355469 120.820312 173.355469 C 121.917969 173.355469 126.3125 176.867188 126.734375 178.058594 C 126.925781 178.609375 126.734375 179.382812 125.988281 180.992188 C 123.4375 186.4375 122.757812 188.4375 123.082031 189.304688 C 123.535156 190.464844 125.925781 193.65625 126.378906 193.65625 C 126.570312 193.65625 128.898438 193.429688 131.515625 193.140625 C 135.195312 192.722656 136.425781 192.6875 136.78125 192.980469 C 137.199219 193.332031 138.039062 195.429688 138.945312 198.457031 C 139.523438 200.359375 138.976562 201.195312 136.488281 202.484375 C 133.679688 203.964844 129.964844 206.191406 129.511719 206.738281 C 129.316406 206.996094 129.027344 208.316406 128.863281 209.703125 C 128.671875 211.636719 128.734375 212.34375 129.089844 212.890625 C 129.347656 213.3125 129.738281 213.632812 129.929688 213.632812 C 130.320312 213.632812 136.714844 217.179688 137.652344 217.917969 C 137.941406 218.113281 138.234375 218.53125 138.328125 218.789062 C 138.492188 219.335938 137.523438 222.398438 136.164062 225.492188 C 134.90625 228.292969 134.582031 228.328125 127.636719 226.652344 C 124.828125 225.972656 124.117188 225.910156 123.371094 226.230469 C 122.113281 226.714844 119.527344 229.679688 119.527344 230.582031 C 119.527344 231 119.917969 232.515625 120.367188 233.964844 C 121.015625 235.867188 121.144531 236.738281 120.917969 237.125 C 120.625 237.542969 119.691406 237.640625 114.8125 237.734375 C 108.511719 237.832031 106.960938 237.605469 106.152344 236.382812 C 105.703125 235.640625 105.445312 235.609375 103.019531 235.609375 C 100.5 235.609375 100.371094 235.640625 99.175781 236.703125 L 97.980469 237.800781 L 66.9375 237.800781 C 47.8125 237.800781 35.828125 237.671875 35.695312 237.511719 C 35.4375 237.089844 35.4375 223.300781 35.695312 223.042969 C 35.792969 222.914062 47.910156 222.816406 62.605469 222.816406 L 89.324219 222.785156 L 91.421875 223.558594 C 95.234375 225.007812 98.628906 225.878906 100.371094 225.878906 C 106.671875 225.878906 112.164062 223.816406 116.363281 219.820312 C 119.140625 217.210938 120.820312 212.503906 120.917969 207.1875 C 120.980469 202.066406 119.207031 197.78125 115.425781 194.074219 C 112.195312 190.882812 109.09375 189.433594 104.378906 188.820312 C 97.949219 187.984375 92.390625 190.851562 89.808594 196.328125 C 88.96875 198.070312 88.839844 198.683594 88.839844 201.261719 C 88.839844 203.902344 88.9375 204.386719 89.839844 206.191406 C 91.359375 209.21875 91.003906 209.574219 87.160156 208.511719 C 83.25 207.445312 79.4375 205.804688 78.855469 204.964844 C 78.402344 204.257812 78.339844 202.484375 78.308594 190.367188 C 78.273438 177.382812 78.308594 176.546875 78.855469 176.253906 C 79.179688 176.0625 79.535156 175.933594 79.695312 175.933594 C 79.988281 175.933594 85.125 179.542969 86.769531 180.894531 C 88.0625 181.925781 88.320312 181.925781 90.972656 180.863281 C 92.359375 180.285156 93.199219 179.734375 93.363281 179.285156 C 93.523438 178.898438 93.621094 176.253906 93.585938 173.386719 C 93.523438 169.003906 93.585938 168.136719 94.039062 167.683594 C 94.425781 167.328125 95.492188 167.105469 97.59375 166.941406 C 99.273438 166.78125 100.886719 166.652344 101.179688 166.621094 C 101.46875 166.621094 102.082031 166.910156 102.535156 167.296875 Z M 158.132812 186.148438 C 163.300781 189.046875 166.273438 195.042969 164.335938 198.714844 C 162.6875 201.808594 157.875 201.710938 153.933594 198.585938 C 148.957031 194.558594 147.214844 188.917969 150.089844 186.082031 C 151.15625 184.988281 151.316406 184.957031 153.578125 184.957031 C 155.710938 184.957031 156.164062 185.085938 158.132812 186.148438 Z M 106.445312 192.207031 C 108.480469 192.785156 112.292969 195.007812 113.488281 196.363281 C 117.460938 200.839844 118.6875 205.546875 117.394531 211.410156 C 116.589844 215.050781 114.84375 217.402344 111.195312 219.882812 C 108.640625 221.59375 105.800781 222.398438 101.664062 222.589844 C 98.496094 222.71875 97.949219 222.65625 95.753906 221.882812 C 94.425781 221.398438 92.617188 220.59375 91.714844 220.078125 L 90.097656 219.109375 L 35.535156 219.109375 L 35.472656 216.597656 C 35.40625 212.472656 35.503906 208.800781 35.695312 208.476562 C 35.828125 208.285156 43.707031 208.15625 56.628906 208.15625 L 77.402344 208.15625 L 79.953125 209.25 C 85.800781 211.699219 91.875 212.988281 97.398438 212.988281 C 101.242188 212.988281 102.503906 212.632812 102.664062 211.472656 C 102.828125 210.378906 101.535156 209.507812 98.304688 208.476562 C 93.363281 206.929688 91.746094 205.160156 91.746094 201.226562 C 91.746094 198.585938 92.652344 196.621094 94.945312 194.398438 C 96.203125 193.171875 96.949219 192.753906 98.5625 192.300781 C 101.988281 191.367188 103.34375 191.367188 106.445312 192.207031 Z M 159.585938 206.027344 C 161.332031 207.15625 163.269531 209.703125 164.140625 211.925781 C 165.207031 214.695312 165.207031 218.722656 164.109375 220.851562 C 161.945312 225.070312 156.066406 223.558594 153.382812 218.078125 C 151.671875 214.566406 151.511719 214.019531 151.511719 211.957031 C 151.511719 209.316406 151.960938 207.738281 153.125 206.414062 C 154.804688 204.515625 157.097656 204.386719 159.585938 206.027344 Z M 159.585938 206.027344 "/>
<path style=" stroke:none;fill-rule:nonzero;fill:rgb(0%,0%,54.509804%);fill-opacity:1;" d="M 49.328125 125.570312 C 48.585938 126.3125 49.8125 130.5 51.269531 132.238281 C 52.429688 133.625 53.304688 134.042969 55.144531 134.042969 C 56.5 134.042969 56.792969 133.914062 57.988281 132.660156 C 59.3125 131.273438 60.3125 129.019531 60.476562 127.085938 C 60.570312 125.503906 60.214844 125.246094 58.796875 125.988281 C 57.535156 126.632812 56.890625 127.375 55.921875 129.308594 C 55.113281 130.886719 54.433594 130.789062 53.496094 128.984375 C 52.722656 127.4375 51.847656 126.503906 50.492188 125.730469 C 49.652344 125.28125 49.621094 125.28125 49.328125 125.570312 Z M 49.328125 125.570312 "/>
<path style=" stroke:none;fill-rule:nonzero;fill:rgb(0%,0%,54.509804%);fill-opacity:1;" d="M 48.585938 137.105469 C 48.488281 137.363281 48.554688 138.039062 48.75 138.585938 C 48.941406 139.167969 49.105469 140.003906 49.105469 140.488281 C 49.105469 141.292969 51.429688 144.9375 52.269531 145.449219 C 52.464844 145.546875 53.433594 145.707031 54.464844 145.773438 C 57.4375 146 59.214844 144.453125 60.410156 140.554688 C 61.21875 137.976562 61.25 136.621094 60.539062 136.621094 C 59.636719 136.621094 58.019531 137.8125 57.019531 139.199219 C 55.144531 141.777344 55.015625 141.875 54.5 141.679688 C 54.207031 141.585938 53.691406 140.941406 53.335938 140.230469 C 52.074219 137.75 49.070312 135.785156 48.585938 137.105469 Z M 48.585938 137.105469 "/>
<path style=" stroke:none;fill-rule:nonzero;fill:rgb(0%,0%,54.509804%);fill-opacity:1;" d="M 48.039062 147.996094 C 47.777344 148.671875 48.394531 151.832031 49.039062 153.054688 C 49.945312 154.828125 51.140625 156.308594 52.011719 156.730469 C 52.65625 157.050781 56.050781 157.210938 57.246094 156.953125 C 57.957031 156.824219 59.601562 154.957031 60.410156 153.34375 C 61.574219 151.089844 62.058594 147.898438 61.28125 147.898438 C 59.601562 147.898438 57.957031 149.15625 56.308594 151.703125 C 55.046875 153.636719 54.402344 153.765625 53.625 152.21875 C 52.882812 150.671875 51.65625 149.351562 50.167969 148.414062 C 48.617188 147.480469 48.265625 147.382812 48.039062 147.996094 Z M 48.039062 147.996094 "/>
<path style=" stroke:none;fill-rule:nonzero;fill:rgb(0%,0%,54.509804%);fill-opacity:1;" d="M 46.972656 159.660156 C 46.617188 160.59375 47.421875 163.625 48.425781 164.976562 C 50.234375 167.492188 51.65625 168.199219 54.855469 168.199219 C 57.148438 168.199219 57.535156 168.101562 58.890625 167.199219 C 60.605469 166.074219 61.347656 165.140625 62.121094 163.109375 C 62.703125 161.625 62.832031 159.660156 62.382812 159.371094 C 61.445312 158.792969 57.019531 161.851562 56.015625 163.753906 C 55.46875 164.847656 54.109375 165.011719 53.789062 164.042969 C 53.496094 163.078125 51.65625 161.273438 50.074219 160.402344 C 47.972656 159.210938 47.199219 159.015625 46.972656 159.660156 Z M 46.972656 159.660156 "/>
<path style=" stroke:none;fill-rule:nonzero;fill:rgb(0%,0%,54.509804%);fill-opacity:1;" d="M 46.003906 170.261719 C 45.742188 170.9375 46.488281 174.226562 47.199219 175.609375 C 47.972656 177.0625 50.265625 179.347656 51.460938 179.769531 C 52.753906 180.285156 57.339844 180.21875 58.570312 179.671875 C 60.699219 178.800781 63.253906 174.933594 63.738281 171.875 C 64.0625 169.875 63.480469 169.554688 61.25 170.457031 C 59.085938 171.324219 57.179688 172.90625 56.371094 174.515625 C 56.015625 175.222656 55.597656 175.867188 55.433594 175.964844 C 54.886719 176.382812 54.046875 175.867188 53.464844 174.742188 C 52.558594 173.097656 49.976562 170.90625 48.230469 170.328125 C 46.390625 169.683594 46.226562 169.683594 46.003906 170.261719 Z M 46.003906 170.261719 "/>
<path style=" stroke:none;fill-rule:nonzero;fill:rgb(0%,0%,54.509804%);fill-opacity:1;" d="M 45.582031 181.378906 C 44.96875 181.765625 45.355469 184.183594 46.390625 186.503906 C 47.230469 188.371094 49.554688 190.820312 51.234375 191.527344 C 51.882812 191.820312 53.304688 191.949219 55.144531 191.914062 C 57.46875 191.851562 58.246094 191.722656 59.183594 191.140625 C 60.410156 190.402344 62.382812 188.371094 62.960938 187.277344 C 63.964844 185.375 64.707031 181.734375 64.191406 181.21875 C 63.867188 180.863281 61.410156 181.699219 59.765625 182.730469 C 58.308594 183.632812 57.019531 185.019531 56.210938 186.566406 C 55.304688 188.273438 54.5625 188.242188 53.53125 186.46875 C 52.558594 184.859375 49.976562 182.601562 48.070312 181.734375 C 46.488281 181.023438 46.226562 180.992188 45.582031 181.378906 Z M 45.582031 181.378906 "/>
<path style=" stroke:none;fill-rule:nonzero;fill:rgb(0%,0%,54.509804%);fill-opacity:1;" d="M 42.15625 254.554688 C 41.640625 255.070312 40.929688 255.523438 40.574219 255.523438 C 40.1875 255.523438 39.605469 255.746094 39.28125 256.003906 C 38.925781 256.261719 38.085938 256.488281 37.410156 256.488281 C 36.019531 256.488281 33.175781 255.488281 32.273438 254.683594 C 31.722656 254.167969 31.660156 254.167969 31.464844 254.683594 C 31.175781 255.394531 32.207031 256.8125 33.46875 257.457031 C 34.050781 257.746094 35.308594 257.9375 36.859375 257.9375 C 39.058594 257.9375 39.476562 257.84375 40.996094 256.875 C 42.835938 255.746094 43.839844 255.585938 44.128906 256.328125 C 44.386719 257.003906 46.195312 257.972656 47.617188 258.195312 C 49.105469 258.421875 51.460938 257.714844 52.753906 256.617188 C 53.882812 255.652344 54.628906 255.652344 55.433594 256.519531 C 56.144531 257.292969 57.117188 257.746094 58.957031 258.101562 C 60.507812 258.421875 62.382812 257.777344 63.800781 256.457031 C 64.996094 255.328125 65.289062 255.296875 66.097656 256.199219 C 66.417969 256.585938 67.257812 257.164062 67.90625 257.488281 C 70.101562 258.617188 73.945312 257.84375 75.109375 256.039062 C 75.691406 255.167969 76.722656 255.230469 77.242188 256.199219 C 77.757812 257.199219 79.921875 258.101562 81.730469 258.101562 C 83.476562 258.101562 85.351562 257.328125 86.382812 256.199219 C 87.191406 255.328125 87.675781 255.328125 88.320312 256.328125 C 89.03125 257.421875 90.808594 258.101562 92.941406 258.101562 C 94.816406 258.101562 95.945312 257.585938 97.140625 256.230469 C 97.949219 255.296875 98.238281 255.359375 100.628906 257.132812 C 101.664062 257.90625 102.246094 258.066406 103.667969 258.101562 C 105.734375 258.101562 107.703125 257.292969 108.191406 256.230469 C 108.609375 255.328125 109.707031 255.296875 110.226562 256.199219 C 110.804688 257.164062 113.164062 258.101562 115.003906 258.101562 C 116.265625 258.101562 116.847656 257.875 118.105469 256.972656 C 120.402344 255.328125 120.433594 255.328125 121.597656 256.457031 C 123.371094 258.195312 126.3125 258.617188 128.574219 257.457031 C 129.285156 257.101562 129.996094 256.519531 130.1875 256.167969 C 130.609375 255.394531 131.578125 255.328125 132.160156 256.039062 C 132.417969 256.328125 133.160156 256.90625 133.808594 257.328125 C 136.003906 258.710938 140.042969 258.101562 141.398438 256.167969 C 142.046875 255.230469 142.59375 255.359375 144.4375 256.8125 C 145.890625 257.972656 146.277344 258.101562 147.828125 258.101562 C 149.734375 258.101562 151.542969 257.359375 152.609375 256.199219 C 153.382812 255.328125 154.320312 255.328125 154.578125 256.199219 C 154.871094 257.132812 157.164062 258.101562 159.070312 258.101562 C 160.75 258.101562 163.203125 256.972656 163.59375 256.003906 C 163.882812 255.265625 165.078125 255.425781 165.789062 256.328125 C 167.628906 258.648438 172.316406 258.839844 174.125 256.648438 C 174.738281 255.910156 175.546875 256.070312 177.417969 257.199219 C 178.96875 258.132812 179.390625 258.261719 181.617188 258.261719 C 184.042969 258.261719 184.105469 258.230469 185.65625 256.941406 C 186.496094 256.199219 187.238281 255.296875 187.304688 254.910156 C 187.433594 254.007812 187.304688 254.039062 185.332031 255.359375 C 183.847656 256.359375 183.429688 256.488281 181.554688 256.488281 C 179.355469 256.488281 177.644531 255.84375 176.125 254.457031 L 175.417969 253.78125 L 174.511719 254.621094 C 173.542969 255.554688 171.214844 256.488281 169.828125 256.488281 C 168.761719 256.488281 166.113281 255.199219 165.273438 254.265625 L 164.625 253.589844 L 163.65625 254.523438 C 161.167969 256.84375 156.875 256.746094 154.320312 254.296875 L 153.449219 253.460938 L 152.542969 254.457031 C 151.382812 255.84375 148.957031 256.519531 146.828125 256.132812 C 145.339844 255.84375 143.109375 254.523438 143.109375 253.878906 C 143.109375 253.332031 142.53125 253.558594 141.496094 254.523438 C 140.496094 255.394531 137.84375 256.488281 136.648438 256.488281 C 135.648438 256.488281 133.289062 255.328125 132.484375 254.425781 C 131.546875 253.429688 130.964844 253.363281 130.542969 254.199219 C 130.351562 254.523438 129.574219 255.101562 128.800781 255.488281 C 126.246094 256.714844 122.757812 256.167969 121.242188 254.296875 L 120.5625 253.429688 L 119.464844 254.425781 C 118.882812 255.007812 117.6875 255.683594 116.78125 255.972656 C 115.328125 256.425781 114.972656 256.425781 113.390625 256.003906 C 112.195312 255.714844 111.324219 255.230469 110.742188 254.554688 C 109.675781 253.394531 109.417969 253.363281 108.609375 254.363281 C 107.835938 255.359375 105.863281 256.230469 104.054688 256.359375 C 102.503906 256.457031 100.757812 255.746094 99.691406 254.585938 C 98.917969 253.71875 98.144531 253.71875 97.367188 254.585938 C 96.527344 255.554688 94.394531 256.488281 93.039062 256.488281 C 91.648438 256.488281 89.292969 255.457031 88.128906 254.328125 L 87.289062 253.523438 L 86.511719 254.394531 C 84.929688 256.199219 81.570312 256.90625 79.535156 255.875 C 78.890625 255.523438 77.984375 254.878906 77.5625 254.425781 C 76.5625 253.363281 76.238281 253.363281 75.238281 254.425781 C 74.203125 255.554688 72.6875 256.167969 70.941406 256.167969 C 69.328125 256.167969 66.644531 255.136719 66.355469 254.425781 C 66 253.523438 65.222656 253.589844 64.253906 254.554688 C 63.351562 255.457031 60.734375 256.488281 59.375 256.488281 C 58.40625 256.488281 56.4375 255.554688 55.46875 254.621094 C 54.820312 254.007812 54.433594 253.847656 54.144531 254.070312 C 50.621094 256.683594 48.910156 257.035156 46.097656 255.746094 C 45.03125 255.265625 44.226562 254.683594 44.097656 254.265625 C 43.804688 253.332031 43.257812 253.429688 42.15625 254.554688 Z M 42.15625 254.554688 "/>
<path style=" stroke:none;fill-rule:nonzero;fill:rgb(0%,0%,54.509804%);fill-opacity:1;" d="M 75.109375 262.902344 C 74.011719 263.898438 73.492188 264.15625 72.007812 264.320312 C 69.8125 264.578125 68.421875 264.191406 66.839844 262.933594 C 66.160156 262.417969 65.480469 261.964844 65.320312 261.964844 C 65.160156 261.964844 64.707031 262.351562 64.253906 262.804688 C 62.929688 264.222656 61.800781 264.640625 59.636719 264.480469 C 58.050781 264.382812 57.339844 264.15625 56.144531 263.320312 C 54.433594 262.128906 54.175781 262.09375 53.59375 262.804688 C 51.71875 265.058594 46.808594 265.09375 44.582031 262.902344 L 43.613281 261.902344 L 42.417969 262.804688 C 40.898438 263.964844 39.28125 264.511719 37.441406 264.542969 C 35.761719 264.542969 33.4375 263.835938 32.5625 263.03125 C 31.59375 262.160156 31.304688 262.902344 31.402344 266.027344 L 31.496094 268.894531 L 108.996094 268.992188 C 166.015625 269.023438 186.59375 268.957031 186.917969 268.699219 C 187.238281 268.441406 187.367188 267.445312 187.367188 265.316406 C 187.367188 263.640625 187.273438 262.289062 187.175781 262.289062 C 187.078125 262.289062 186.398438 262.707031 185.65625 263.222656 C 184.042969 264.351562 181.359375 265.027344 179.679688 264.707031 C 179.035156 264.609375 177.710938 263.996094 176.804688 263.351562 L 175.09375 262.222656 L 173.996094 263.191406 C 172.410156 264.578125 169.925781 265.058594 167.984375 264.382812 C 167.179688 264.09375 166.046875 263.417969 165.5 262.867188 L 164.433594 261.835938 L 163.558594 262.546875 C 161.6875 264.027344 161.234375 264.253906 159.617188 264.449219 C 157.679688 264.671875 155.582031 263.996094 154.417969 262.773438 C 153.511719 261.804688 153.09375 261.773438 152.578125 262.609375 C 151.996094 263.511719 150.636719 264.09375 148.507812 264.351562 C 146.921875 264.511719 146.4375 264.449219 145.082031 263.769531 C 144.210938 263.320312 143.433594 262.738281 143.335938 262.449219 C 143.015625 261.675781 142.207031 261.871094 141.011719 263.0625 C 139.007812 265.058594 135.003906 265.058594 132.804688 263.0625 C 131.480469 261.902344 130.609375 261.675781 130.320312 262.449219 C 130.222656 262.707031 129.609375 263.222656 128.960938 263.640625 C 126.539062 265.125 122.175781 264.382812 120.886719 262.289062 C 120.464844 261.613281 120.433594 261.644531 119.011719 262.902344 C 116.589844 265.027344 113.066406 265.027344 110.613281 262.867188 L 109.480469 261.871094 L 108.609375 262.578125 C 106.445312 264.285156 106.1875 264.382812 103.859375 264.382812 C 101.792969 264.382812 101.4375 264.285156 100.339844 263.417969 C 98.207031 261.742188 98.238281 261.742188 97.625 262.515625 C 95.527344 265.15625 90.355469 265.253906 88.289062 262.675781 L 87.609375 261.804688 L 86.675781 262.675781 C 85.574219 263.707031 83.410156 264.542969 81.765625 264.542969 C 80.214844 264.511719 78.050781 263.511719 77.371094 262.480469 C 77.046875 262.03125 76.722656 261.644531 76.59375 261.644531 C 76.5 261.644531 75.820312 262.222656 75.109375 262.902344 Z M 75.109375 262.902344 "/>
</g>
</svg>
